<?xml version="1.0" encoding="UTF-8" standalone="no"?>
<!DOCTYPE svg PUBLIC "-//W3C//DTD SVG 1.1//EN" "http://www.w3.org/Graphics/SVG/1.1/DTD/svg11.dtd">
<svg width="100%" height="100%" viewBox="0 0 146 143" version="1.1" xmlns="http://www.w3.org/2000/svg" xmlns:xlink="http://www.w3.org/1999/xlink" xml:space="preserve" xmlns:serif="http://www.serif.com/" style="fill-rule:evenodd;clip-rule:evenodd;stroke-linejoin:round;stroke-miterlimit:2;">
    <g transform="matrix(1,0,0,1,-16.048132,-12.221827)">
        <g id="Fundo" transform="matrix(1,0,0,1,14,10)">
            <path d="M16.494,53.997C29.768,54.531 34.099,57.477 37.792,53.792C57.365,34.256 60.529,31.903 60.1,29.553C58.245,19.378 52.528,14.702 57.442,5.462C61.548,-2.258 80.596,6.163 82.396,6.762C116.028,17.964 127.936,27.493 139.72,42.328C145.066,49.058 151.657,66.636 145.648,72.648C141.632,76.665 141.674,76.625 137.648,80.648C137.112,81.183 137.186,81.125 136.641,81.646C132.543,85.567 132.304,85.161 128.232,89.232C123.834,93.63 73.538,143.921 73.227,144.173C68.388,148.091 37.305,136.577 24.059,114.75C13.267,96.965 14.99,96.232 10.752,84.403C7.909,76.466 -7.162,58.626 10.48,53.437C10.943,53.301 10.903,53.555 16.494,53.997ZM56.508,115.934C79.287,113.824 78.361,87.699 63.519,81.455C38.271,70.831 26.072,114.09 56.508,115.934ZM118.961,53.5C117.794,31.065 90.118,30.056 83.966,47.655C75.56,71.7 117.014,83.034 118.961,53.5Z" style="fill:rgb(254,254,254);fill-opacity:1;"/>
        </g>
    </g>
</svg>
